<?xml version="1.0" encoding="UTF-8" standalone="no"?>
<svg
   xmlns:dc="http://purl.org/dc/elements/1.1/"
   xmlns:cc="http://creativecommons.org/ns#"
   xmlns:rdf="http://www.w3.org/1999/02/22-rdf-syntax-ns#"
   xmlns:svg="http://www.w3.org/2000/svg"
   xmlns="http://www.w3.org/2000/svg"
   xmlns:sodipodi="http://sodipodi.sourceforge.net/DTD/sodipodi-0.dtd"
   xmlns:inkscape="http://www.inkscape.org/namespaces/inkscape"
   id="svg8"
   version="1.1"
   viewBox="0 0 300 300"
   height="300mm"
   width="300mm"
   sodipodi:docname="argus_logomark.svg"
   inkscape:version="1.0.1 (0767f8302a, 2020-10-17)"
   inkscape:export-filename="/home/ruslan/Pictures/argus-logo/argus_logomark.png"
   inkscape:export-xdpi="76.199997"
   inkscape:export-ydpi="76.199997">
  <sodipodi:namedview
     pagecolor="#ffffff"
     bordercolor="#666666"
     borderopacity="1"
     objecttolerance="10"
     gridtolerance="10"
     guidetolerance="10"
     inkscape:pageopacity="0"
     inkscape:pageshadow="2"
     inkscape:window-width="1848"
     inkscape:window-height="1016"
     id="namedview13"
     showgrid="false"
     inkscape:zoom="0.24043816"
     inkscape:cx="1618.3563"
     inkscape:cy="183.90198"
     inkscape:window-x="72"
     inkscape:window-y="27"
     inkscape:window-maximized="1"
     inkscape:current-layer="svg8"
     inkscape:document-rotation="0"
     inkscape:snap-grids="true" />
  <defs
     id="defs2" />
  <metadata
     id="metadata5">
    <rdf:RDF>
      <cc:Work
         rdf:about="">
        <dc:format>image/svg+xml</dc:format>
        <dc:type
           rdf:resource="http://purl.org/dc/dcmitype/StillImage" />
        <dc:title />
      </cc:Work>
    </rdf:RDF>
  </metadata>
  <g
     transform="matrix(1.3777322,0,0,1.3777322,-144.20934,-57.014131)"
     id="layer1">
    <path
       id="path880"
       style="fill:#000000;stroke:none;stroke-width:1.01233"
       d="M 676.24805,177.05469 A 389.40502,389.40502 0 0 0 288.55664,532.52148 389.40502,389.40502 0 0 0 483.7832,904.8457 c -43.58159,-82.46333 -41.56445,-189.44726 -41.56445,-189.44726 0,0 203.82791,103.46104 158.55273,53.48437 C 580.1378,746.10649 454.55239,650.19448 464.49219,598.375 487.23596,482.57908 584.09768,343.71966 658.36328,271.61719 c 34.6183,-34.54075 55.44297,-57.61018 49.91602,-93.25977 a 389.40502,389.40502 0 0 0 -32.03125,-1.30273 z m 184.1914,46.1914 c -39.86064,1.77947 -96.49777,-1.30395 -153.57031,65.91602 -84.03843,106.09699 -22.24099,363.07175 50.07227,511.4707 34.30278,68.8482 61.82323,108.43685 73.18359,123.64063 a 389.40502,389.40502 0 0 0 234.2793,-323.875 389.40502,389.40502 0 0 0 -203.96485,-377.15235 z"
       transform="matrix(0.24515199,0,0,0.24515199,47.705575,11.38842)" />
    <path
       id="path18"
       style="fill:#65f85c;fill-opacity:1;stroke:none;stroke-width:1.04472px;stroke-linecap:butt;stroke-linejoin:miter;stroke-opacity:1"
       d="m 708.2793,178.35742 c 5.52695,35.64959 -15.29772,58.71902 -49.91602,93.25977 -74.2656,72.10247 -171.12732,210.96189 -193.87109,326.75781 -9.9398,51.81948 115.64561,147.73149 136.27929,170.50781 45.27518,49.97667 -158.55273,-53.48437 -158.55273,-53.48437 0,0 -2.01714,106.98393 41.56445,189.44726 a 389.40502,389.40502 0 0 0 0.002,0 389.40502,389.40502 0 0 0 158.75586,49.53711 A 389.40502,389.40502 0 0 0 830.125,924.27344 C 818.76464,909.06966 791.24419,869.48101 756.94141,800.63281 684.62815,652.23386 622.83071,395.2591 706.86914,289.16211 763.94168,221.94214 820.57881,225.02556 860.43945,223.24609 a 389.40502,389.40502 0 0 0 -150.01953,-44.70898 389.40502,389.40502 0 0 0 -2.14062,-0.17969 z"
       transform="matrix(0.24515199,0,0,0.24515199,47.705575,11.38842)" />
    <g
       aria-label="ARGUS"
       id="text834"
       style="font-style:normal;font-variant:normal;font-weight:bold;font-stretch:normal;font-size:155.172px;line-height:1.25;font-family:'TT Travels';-inkscape-font-specification:'TT Travels, Bold';font-variant-ligatures:normal;font-variant-caps:normal;font-variant-numeric:normal;font-variant-east-asian:normal;text-align:start;letter-spacing:0px;word-spacing:0px;writing-mode:lr-tb;text-anchor:start;fill:#000000;fill-opacity:1;stroke:none;stroke-width:3.87929" />
  </g>
</svg>
