<?xml version="1.0" encoding="UTF-8" standalone="no"?>
<svg
   xmlns:dc="http://purl.org/dc/elements/1.1/"
   xmlns:cc="http://creativecommons.org/ns#"
   xmlns:rdf="http://www.w3.org/1999/02/22-rdf-syntax-ns#"
   xmlns:svg="http://www.w3.org/2000/svg"
   xmlns="http://www.w3.org/2000/svg"
   xmlns:sodipodi="http://sodipodi.sourceforge.net/DTD/sodipodi-0.dtd"
   xmlns:inkscape="http://www.inkscape.org/namespaces/inkscape"
   id="svg8"
   version="1.1"
   viewBox="0 0 1024 300"
   height="300mm"
   width="1024mm"
   sodipodi:docname="argus_logo.svg"
   inkscape:version="1.0.1 (0767f8302a, 2020-10-17)"
   inkscape:export-filename="/home/ruslan/Pictures/argus-logo/argus9.png"
   inkscape:export-xdpi="76.199997"
   inkscape:export-ydpi="76.199997">
  <sodipodi:namedview
     pagecolor="#ffffff"
     bordercolor="#666666"
     borderopacity="1"
     objecttolerance="10"
     gridtolerance="10"
     guidetolerance="10"
     inkscape:pageopacity="0"
     inkscape:pageshadow="2"
     inkscape:window-width="1848"
     inkscape:window-height="1016"
     id="namedview13"
     showgrid="false"
     inkscape:zoom="0.24043816"
     inkscape:cx="1618.3563"
     inkscape:cy="183.90198"
     inkscape:window-x="72"
     inkscape:window-y="27"
     inkscape:window-maximized="1"
     inkscape:current-layer="svg8"
     inkscape:document-rotation="0"
     inkscape:snap-grids="true" />
  <defs
     id="defs2" />
  <metadata
     id="metadata5">
    <rdf:RDF>
      <cc:Work
         rdf:about="">
        <dc:format>image/svg+xml</dc:format>
        <dc:type
           rdf:resource="http://purl.org/dc/dcmitype/StillImage" />
        <dc:title />
      </cc:Work>
    </rdf:RDF>
  </metadata>
  <g
     transform="matrix(1.0792624,0,0,1.0792624,-51.486746,-12.166907)"
     id="layer1">
    <path
       id="path880"
       style="fill:#000000;stroke:none;stroke-width:1.01233"
       d="M 676.24805,177.05469 A 389.40502,389.40502 0 0 0 288.55664,532.52148 389.40502,389.40502 0 0 0 483.7832,904.8457 c -43.58159,-82.46333 -41.56445,-189.44726 -41.56445,-189.44726 0,0 203.82791,103.46104 158.55273,53.48437 C 580.1378,746.10649 454.55239,650.19448 464.49219,598.375 487.23596,482.57908 584.09768,343.71966 658.36328,271.61719 c 34.6183,-34.54075 55.44297,-57.61018 49.91602,-93.25977 a 389.40502,389.40502 0 0 0 -32.03125,-1.30273 z m 184.1914,46.1914 c -39.86064,1.77947 -96.49777,-1.30395 -153.57031,65.91602 -84.03843,106.09699 -22.24099,363.07175 50.07227,511.4707 34.30278,68.8482 61.82323,108.43685 73.18359,123.64063 a 389.40502,389.40502 0 0 0 234.2793,-323.875 389.40502,389.40502 0 0 0 -203.96485,-377.15235 z"
       transform="matrix(0.24515199,0,0,0.24515199,47.705575,11.38842)" />
    <path
       id="path18"
       style="fill:#65f85c;fill-opacity:1;stroke:none;stroke-width:1.04472px;stroke-linecap:butt;stroke-linejoin:miter;stroke-opacity:1"
       d="m 708.2793,178.35742 c 5.52695,35.64959 -15.29772,58.71902 -49.91602,93.25977 -74.2656,72.10247 -171.12732,210.96189 -193.87109,326.75781 -9.9398,51.81948 115.64561,147.73149 136.27929,170.50781 45.27518,49.97667 -158.55273,-53.48437 -158.55273,-53.48437 0,0 -2.01714,106.98393 41.56445,189.44726 a 389.40502,389.40502 0 0 0 0.002,0 389.40502,389.40502 0 0 0 158.75586,49.53711 A 389.40502,389.40502 0 0 0 830.125,924.27344 C 818.76464,909.06966 791.24419,869.48101 756.94141,800.63281 684.62815,652.23386 622.83071,395.2591 706.86914,289.16211 763.94168,221.94214 820.57881,225.02556 860.43945,223.24609 a 389.40502,389.40502 0 0 0 -150.01953,-44.70898 389.40502,389.40502 0 0 0 -2.14062,-0.17969 z"
       transform="matrix(0.24515199,0,0,0.24515199,47.705575,11.38842)" />
    <g
       aria-label="ARGUS"
       id="text834"
       style="font-style:normal;font-variant:normal;font-weight:bold;font-stretch:normal;font-size:155.172px;line-height:1.25;font-family:'TT Travels';-inkscape-font-specification:'TT Travels, Bold';font-variant-ligatures:normal;font-variant-caps:normal;font-variant-numeric:normal;font-variant-east-asian:normal;text-align:start;letter-spacing:0px;word-spacing:0px;writing-mode:lr-tb;text-anchor:start;fill:#000000;fill-opacity:1;stroke:none;stroke-width:3.87929">
      <path
         d="m 415.82998,180.77435 h -45.61209 l -7.19792,20.60878 H 333.69792 L 375.59739,88.262141 h 34.77732 l 41.89947,113.120989 h -29.32205 z m -38.3384,-20.98762 h 30.98894 l -15.45659,-45.00594 z"
         id="path39" />
      <path
         d="m 508.64525,138.42028 q 9.16788,0 13.10779,-3.40954 4.01569,-3.40955 4.01569,-11.21361 0,-7.72829 -4.01569,-11.06206 -3.93991,-3.33378 -13.10779,-3.33378 h -12.27434 v 29.01899 z m -12.27434,20.15417 v 42.80868 H 467.20039 V 88.262141 h 44.55133 q 22.35144,0 32.7316,7.50099 10.45592,7.500989 10.45592,23.715249 0,11.2136 -5.45526,18.41152 -5.3795,7.19792 -16.29003,10.60746 5.98564,1.36382 10.68323,6.21295 4.77335,4.77335 9.62248,14.54737 l 15.83542,32.12545 h -31.0647 l -13.7897,-28.10977 q -4.16722,-8.48597 -8.48597,-11.59244 -4.24299,-3.10647 -11.36514,-3.10647 z"
         id="path41" />
      <path
         d="m 688.29018,192.97293 q -10.91054,5.30373 -22.65451,7.9556 -11.74397,2.65186 -24.24562,2.65186 -28.26131,0 -44.77864,-15.75965 -16.51733,-15.83543 -16.51733,-42.88445 0,-27.3521 16.8204,-43.03599 16.8204,-15.683884 46.06669,-15.683884 11.28936,0 21.59375,2.121493 10.38016,2.121492 19.54804,6.288708 V 118.0388 q -9.47095,-5.3795 -18.86613,-8.03136 -9.31941,-2.65187 -18.71459,-2.65187 -17.42654,0 -26.89749,9.77402 -9.39518,9.69825 -9.39518,27.8067 0,17.95691 9.09211,27.73093 9.09211,9.77402 25.83674,9.77402 4.54606,0 8.41021,-0.53037 3.93991,-0.60614 7.04638,-1.81843 v -21.97259 h -17.80538 v -19.54804 h 45.46055 z"
         id="path43" />
      <path
         d="m 713.89961,88.262141 h 29.17052 v 67.811979 q 0,14.017 4.54605,20.07841 4.62182,5.98564 15.00198,5.98564 10.45593,0 15.00198,-5.98564 4.62182,-6.06141 4.62182,-20.07841 V 88.262141 h 29.17052 v 67.811979 q 0,24.01832 -12.04705,35.7623 -12.04704,11.74397 -36.74727,11.74397 -24.62446,0 -36.67151,-11.74397 -12.04704,-11.74398 -12.04704,-35.7623 z"
         id="path45" />
      <path
         d="m 918.69936,91.823217 v 23.942553 q -9.31941,-4.16722 -18.18422,-6.28871 -8.8648,-2.12149 -16.74463,-2.12149 -10.45593,0 -15.45659,2.87917 -5.00066,2.87917 -5.00066,8.94057 0,4.54606 3.33378,7.12215 3.40954,2.50033 12.27434,4.31876 l 12.42589,2.50033 q 18.86612,3.78838 26.82172,11.51667 7.95559,7.72829 7.95559,21.9726 0,18.71459 -11.13783,27.88246 -11.06207,9.09211 -33.86811,9.09211 -10.75899,0 -21.59376,-2.04572 -10.83476,-2.04573 -21.66952,-6.06141 V 170.8488 q 10.83476,5.75834 20.91185,8.71327 10.15285,2.87917 19.54803,2.87917 9.54672,0 14.62314,-3.18224 5.07643,-3.18224 5.07643,-9.09211 0,-5.30373 -3.48531,-8.1829 -3.40954,-2.87916 -13.71393,-5.15219 l -11.28937,-2.50033 q -16.97193,-3.63685 -24.85176,-11.59244 -7.80406,-7.9556 -7.80406,-21.44223 0,-16.89617 10.91053,-25.988274 10.91053,-9.09211 31.36778,-9.09211 9.31941,0 19.16919,1.439584 9.84979,1.363817 20.38148,4.167217 z"
         id="path47" />
    </g>
  </g>
</svg>
